<svg xmlns="http://www.w3.org/2000/svg" xmlns:xlink="http://www.w3.org/1999/xlink" width="321" zoomAndPan="magnify" viewBox="0 0 240.75 141.750002" height="189" preserveAspectRatio="xMidYMid meet" version="1.0"><defs><g/><clipPath id="a7fa7b3e28"><path d="M 61.601562 56 L 177 56 L 177 86 L 61.601562 86 Z M 61.601562 56 " clip-rule="nonzero"/></clipPath><clipPath id="97eb0ce3d5"><path d="M 61.601562 51.703125 L 179.144531 51.703125 L 179.144531 86.890625 L 61.601562 86.890625 Z M 61.601562 51.703125 " clip-rule="nonzero"/></clipPath><clipPath id="3c1792112d"><path d="M 66 56 L 177 56 L 177 86.890625 L 66 86.890625 Z M 66 56 " clip-rule="nonzero"/></clipPath></defs><g fill="#000000" fill-opacity="0.4"><g transform="translate(32.081992, 47.803)"><g><path d="M 7.296875 -1.625 L 7.296875 0 L 5.671875 0 L 5.671875 -1.625 Z M 0.8125 -1.625 L 0.8125 -11.359375 L 2.4375 -11.359375 L 2.4375 -1.625 Z M 2.4375 0 L 2.4375 -1.625 L 4.046875 -1.625 L 4.046875 0 Z M 4.046875 -1.625 L 4.046875 -4.859375 L 5.671875 -4.859375 L 5.671875 -1.625 Z M 7.296875 -1.625 L 7.296875 -11.359375 L 8.921875 -11.359375 L 8.921875 -1.625 Z M 7.296875 -1.625 "/></g></g></g><g fill="#000000" fill-opacity="0.4"><g transform="translate(41.809494, 47.803)"><g><path d="M 0.8125 0 L 0.8125 -11.359375 L 2.4375 -11.359375 L 2.4375 -6.484375 L 4.046875 -6.484375 L 4.046875 -4.859375 L 2.4375 -4.859375 L 2.4375 0 Z M 4.046875 -6.484375 L 4.046875 -8.109375 L 7.296875 -8.109375 L 7.296875 -6.484375 Z M 7.296875 0 L 7.296875 -6.484375 L 8.921875 -6.484375 L 8.921875 0 Z M 7.296875 0 "/></g></g></g><g fill="#000000" fill-opacity="0.4"><g transform="translate(51.536995, 47.803)"><g><path d="M 2.4375 0 L 2.4375 -1.625 L 7.296875 -1.625 L 7.296875 -3.25 L 2.4375 -3.25 L 2.4375 -4.859375 L 7.296875 -4.859375 L 7.296875 -6.484375 L 8.921875 -6.484375 L 8.921875 0 Z M 0.8125 -1.625 L 0.8125 -3.25 L 2.4375 -3.25 L 2.4375 -1.625 Z M 2.4375 -6.484375 L 2.4375 -8.109375 L 7.296875 -8.109375 L 7.296875 -6.484375 Z M 2.4375 -6.484375 "/></g></g></g><g fill="#000000" fill-opacity="0.4"><g transform="translate(61.264497, 47.803)"><g><path d="M 0.8125 -1.625 L 0.8125 -11.359375 L 2.4375 -11.359375 L 2.4375 -8.109375 L 5.671875 -8.109375 L 5.671875 -6.484375 L 2.4375 -6.484375 L 2.4375 -1.625 Z M 2.4375 0 L 2.4375 -1.625 L 5.671875 -1.625 L 5.671875 0 Z M 2.4375 0 "/></g></g></g><g fill="#000000" fill-opacity="0.4"><g transform="translate(67.749491, 47.803)"><g/></g></g><g fill="#000000" fill-opacity="0.4"><g transform="translate(71.802604, 47.803)"><g><path d="M 0.8125 -1.625 L 0.8125 -11.359375 L 2.4375 -11.359375 L 2.4375 -8.109375 L 5.671875 -8.109375 L 5.671875 -6.484375 L 2.4375 -6.484375 L 2.4375 -1.625 Z M 2.4375 0 L 2.4375 -1.625 L 5.671875 -1.625 L 5.671875 0 Z M 2.4375 0 "/></g></g></g><g fill="#000000" fill-opacity="0.4"><g transform="translate(78.287598, 47.803)"><g><path d="M 7.296875 1.625 L 7.296875 3.25 L 2.4375 3.25 L 2.4375 1.625 Z M 0.8125 -1.625 L 0.8125 -8.109375 L 2.4375 -8.109375 L 2.4375 -1.625 Z M 2.4375 0 L 2.4375 -1.625 L 7.296875 -1.625 L 7.296875 -8.109375 L 8.921875 -8.109375 L 8.921875 1.625 L 7.296875 1.625 L 7.296875 0 Z M 2.4375 0 "/></g></g></g><g fill="#000000" fill-opacity="0.4"><g transform="translate(88.0151, 47.803)"><g><path d="M 0.8125 3.25 L 0.8125 -8.109375 L 7.296875 -8.109375 L 7.296875 -6.484375 L 2.4375 -6.484375 L 2.4375 -1.625 L 7.296875 -1.625 L 7.296875 0 L 2.4375 0 L 2.4375 3.25 Z M 7.296875 -1.625 L 7.296875 -6.484375 L 8.921875 -6.484375 L 8.921875 -1.625 Z M 7.296875 -1.625 "/></g></g></g><g fill="#000000" fill-opacity="0.4"><g transform="translate(97.742601, 47.803)"><g><path d="M 0.8125 -1.625 L 0.8125 -6.484375 L 2.4375 -6.484375 L 2.4375 -4.859375 L 7.296875 -4.859375 L 7.296875 -3.25 L 2.4375 -3.25 L 2.4375 -1.625 Z M 2.4375 0 L 2.4375 -1.625 L 7.296875 -1.625 L 7.296875 0 Z M 2.4375 -6.484375 L 2.4375 -8.109375 L 7.296875 -8.109375 L 7.296875 -6.484375 Z M 7.296875 -4.859375 L 7.296875 -6.484375 L 8.921875 -6.484375 L 8.921875 -4.859375 Z M 7.296875 -4.859375 "/></g></g></g><g fill="#000000" fill-opacity="0.4"><g transform="translate(107.470103, 47.803)"><g/></g></g><g fill="#000000" fill-opacity="0.4"><g transform="translate(111.523216, 47.803)"><g><path d="M 7.296875 -1.625 L 7.296875 0 L 2.4375 0 L 2.4375 -1.625 Z M 0.8125 -1.625 L 0.8125 -6.484375 L 2.4375 -6.484375 L 2.4375 -1.625 Z M 2.4375 -6.484375 L 2.4375 -8.109375 L 7.296875 -8.109375 L 7.296875 -6.484375 Z M 7.296875 -1.625 L 7.296875 -6.484375 L 8.921875 -6.484375 L 8.921875 -1.625 Z M 7.296875 -1.625 "/></g></g></g><g fill="#000000" fill-opacity="0.4"><g transform="translate(121.250718, 47.803)"><g><path d="M 0.8125 0 L 0.8125 -9.734375 L 2.4375 -9.734375 L 2.4375 -8.109375 L 5.671875 -8.109375 L 5.671875 -6.484375 L 2.4375 -6.484375 L 2.4375 0 Z M 2.4375 -9.734375 L 2.4375 -11.359375 L 5.671875 -11.359375 L 5.671875 -9.734375 Z M 2.4375 -9.734375 "/></g></g></g><g fill="#000000" fill-opacity="1"><g transform="translate(30.849625, 46.570632)"><g><path d="M 7.296875 -1.625 L 7.296875 0 L 5.671875 0 L 5.671875 -1.625 Z M 0.8125 -1.625 L 0.8125 -11.359375 L 2.4375 -11.359375 L 2.4375 -1.625 Z M 2.4375 0 L 2.4375 -1.625 L 4.046875 -1.625 L 4.046875 0 Z M 4.046875 -1.625 L 4.046875 -4.859375 L 5.671875 -4.859375 L 5.671875 -1.625 Z M 7.296875 -1.625 L 7.296875 -11.359375 L 8.921875 -11.359375 L 8.921875 -1.625 Z M 7.296875 -1.625 "/></g></g></g><g fill="#000000" fill-opacity="1"><g transform="translate(40.577126, 46.570632)"><g><path d="M 0.8125 0 L 0.8125 -11.359375 L 2.4375 -11.359375 L 2.4375 -6.484375 L 4.046875 -6.484375 L 4.046875 -4.859375 L 2.4375 -4.859375 L 2.4375 0 Z M 4.046875 -6.484375 L 4.046875 -8.109375 L 7.296875 -8.109375 L 7.296875 -6.484375 Z M 7.296875 0 L 7.296875 -6.484375 L 8.921875 -6.484375 L 8.921875 0 Z M 7.296875 0 "/></g></g></g><g fill="#000000" fill-opacity="1"><g transform="translate(50.304628, 46.570632)"><g><path d="M 2.4375 0 L 2.4375 -1.625 L 7.296875 -1.625 L 7.296875 -3.25 L 2.4375 -3.25 L 2.4375 -4.859375 L 7.296875 -4.859375 L 7.296875 -6.484375 L 8.921875 -6.484375 L 8.921875 0 Z M 0.8125 -1.625 L 0.8125 -3.25 L 2.4375 -3.25 L 2.4375 -1.625 Z M 2.4375 -6.484375 L 2.4375 -8.109375 L 7.296875 -8.109375 L 7.296875 -6.484375 Z M 2.4375 -6.484375 "/></g></g></g><g fill="#000000" fill-opacity="1"><g transform="translate(60.032129, 46.570632)"><g><path d="M 0.8125 -1.625 L 0.8125 -11.359375 L 2.4375 -11.359375 L 2.4375 -8.109375 L 5.671875 -8.109375 L 5.671875 -6.484375 L 2.4375 -6.484375 L 2.4375 -1.625 Z M 2.4375 0 L 2.4375 -1.625 L 5.671875 -1.625 L 5.671875 0 Z M 2.4375 0 "/></g></g></g><g fill="#000000" fill-opacity="1"><g transform="translate(66.517123, 46.570632)"><g/></g></g><g fill="#000000" fill-opacity="1"><g transform="translate(70.570237, 46.570632)"><g><path d="M 0.8125 -1.625 L 0.8125 -11.359375 L 2.4375 -11.359375 L 2.4375 -8.109375 L 5.671875 -8.109375 L 5.671875 -6.484375 L 2.4375 -6.484375 L 2.4375 -1.625 Z M 2.4375 0 L 2.4375 -1.625 L 5.671875 -1.625 L 5.671875 0 Z M 2.4375 0 "/></g></g></g><g fill="#000000" fill-opacity="1"><g transform="translate(77.055231, 46.570632)"><g><path d="M 7.296875 1.625 L 7.296875 3.25 L 2.4375 3.25 L 2.4375 1.625 Z M 0.8125 -1.625 L 0.8125 -8.109375 L 2.4375 -8.109375 L 2.4375 -1.625 Z M 2.4375 0 L 2.4375 -1.625 L 7.296875 -1.625 L 7.296875 -8.109375 L 8.921875 -8.109375 L 8.921875 1.625 L 7.296875 1.625 L 7.296875 0 Z M 2.4375 0 "/></g></g></g><g fill="#000000" fill-opacity="1"><g transform="translate(86.782732, 46.570632)"><g><path d="M 0.8125 3.25 L 0.8125 -8.109375 L 7.296875 -8.109375 L 7.296875 -6.484375 L 2.4375 -6.484375 L 2.4375 -1.625 L 7.296875 -1.625 L 7.296875 0 L 2.4375 0 L 2.4375 3.25 Z M 7.296875 -1.625 L 7.296875 -6.484375 L 8.921875 -6.484375 L 8.921875 -1.625 Z M 7.296875 -1.625 "/></g></g></g><g fill="#000000" fill-opacity="1"><g transform="translate(96.510234, 46.570632)"><g><path d="M 0.8125 -1.625 L 0.8125 -6.484375 L 2.4375 -6.484375 L 2.4375 -4.859375 L 7.296875 -4.859375 L 7.296875 -3.25 L 2.4375 -3.25 L 2.4375 -1.625 Z M 2.4375 0 L 2.4375 -1.625 L 7.296875 -1.625 L 7.296875 0 Z M 2.4375 -6.484375 L 2.4375 -8.109375 L 7.296875 -8.109375 L 7.296875 -6.484375 Z M 7.296875 -4.859375 L 7.296875 -6.484375 L 8.921875 -6.484375 L 8.921875 -4.859375 Z M 7.296875 -4.859375 "/></g></g></g><g fill="#000000" fill-opacity="1"><g transform="translate(106.237735, 46.570632)"><g/></g></g><g fill="#000000" fill-opacity="1"><g transform="translate(110.290849, 46.570632)"><g><path d="M 7.296875 -1.625 L 7.296875 0 L 2.4375 0 L 2.4375 -1.625 Z M 0.8125 -1.625 L 0.8125 -6.484375 L 2.4375 -6.484375 L 2.4375 -1.625 Z M 2.4375 -6.484375 L 2.4375 -8.109375 L 7.296875 -8.109375 L 7.296875 -6.484375 Z M 7.296875 -1.625 L 7.296875 -6.484375 L 8.921875 -6.484375 L 8.921875 -1.625 Z M 7.296875 -1.625 "/></g></g></g><g fill="#000000" fill-opacity="1"><g transform="translate(120.01835, 46.570632)"><g><path d="M 0.8125 0 L 0.8125 -9.734375 L 2.4375 -9.734375 L 2.4375 -8.109375 L 5.671875 -8.109375 L 5.671875 -6.484375 L 2.4375 -6.484375 L 2.4375 0 Z M 2.4375 -9.734375 L 2.4375 -11.359375 L 5.671875 -11.359375 L 5.671875 -9.734375 Z M 2.4375 -9.734375 "/></g></g></g><g fill="#000000" fill-opacity="0.4"><g transform="translate(142.175134, 104.250683)"><g><path d="M 2.4375 0 L 2.4375 -1.625 L 7.296875 -1.625 L 7.296875 -3.25 L 2.4375 -3.25 L 2.4375 -4.859375 L 7.296875 -4.859375 L 7.296875 -6.484375 L 8.921875 -6.484375 L 8.921875 0 Z M 0.8125 -1.625 L 0.8125 -3.25 L 2.4375 -3.25 L 2.4375 -1.625 Z M 2.4375 -6.484375 L 2.4375 -8.109375 L 7.296875 -8.109375 L 7.296875 -6.484375 Z M 2.4375 -6.484375 "/></g></g></g><g fill="#000000" fill-opacity="0.4"><g transform="translate(151.902636, 104.250683)"><g><path d="M 0.8125 0 L 0.8125 -8.109375 L 2.4375 -8.109375 L 2.4375 -6.484375 L 4.046875 -6.484375 L 4.046875 -4.859375 L 2.4375 -4.859375 L 2.4375 0 Z M 4.046875 -6.484375 L 4.046875 -8.109375 L 7.296875 -8.109375 L 7.296875 -6.484375 Z M 4.046875 -6.484375 "/></g></g></g><g fill="#000000" fill-opacity="0.4"><g transform="translate(160.008883, 104.250683)"><g><path d="M 0.8125 -1.625 L 0.8125 -6.484375 L 2.4375 -6.484375 L 2.4375 -4.859375 L 7.296875 -4.859375 L 7.296875 -3.25 L 2.4375 -3.25 L 2.4375 -1.625 Z M 2.4375 0 L 2.4375 -1.625 L 7.296875 -1.625 L 7.296875 0 Z M 2.4375 -6.484375 L 2.4375 -8.109375 L 7.296875 -8.109375 L 7.296875 -6.484375 Z M 7.296875 -4.859375 L 7.296875 -6.484375 L 8.921875 -6.484375 L 8.921875 -4.859375 Z M 7.296875 -4.859375 "/></g></g></g><g fill="#000000" fill-opacity="0.4"><g transform="translate(169.736385, 104.250683)"><g/></g></g><g fill="#000000" fill-opacity="0.4"><g transform="translate(173.789498, 104.250683)"><g><path d="M 7.296875 1.625 L 7.296875 3.25 L 2.4375 3.25 L 2.4375 1.625 Z M 0.8125 -1.625 L 0.8125 -8.109375 L 2.4375 -8.109375 L 2.4375 -1.625 Z M 2.4375 0 L 2.4375 -1.625 L 7.296875 -1.625 L 7.296875 -8.109375 L 8.921875 -8.109375 L 8.921875 1.625 L 7.296875 1.625 L 7.296875 0 Z M 2.4375 0 "/></g></g></g><g fill="#000000" fill-opacity="0.4"><g transform="translate(183.517, 104.250683)"><g><path d="M 7.296875 -1.625 L 7.296875 0 L 2.4375 0 L 2.4375 -1.625 Z M 0.8125 -1.625 L 0.8125 -6.484375 L 2.4375 -6.484375 L 2.4375 -1.625 Z M 2.4375 -6.484375 L 2.4375 -8.109375 L 7.296875 -8.109375 L 7.296875 -6.484375 Z M 7.296875 -1.625 L 7.296875 -6.484375 L 8.921875 -6.484375 L 8.921875 -1.625 Z M 7.296875 -1.625 "/></g></g></g><g fill="#000000" fill-opacity="0.4"><g transform="translate(193.244501, 104.250683)"><g><path d="M 7.296875 -1.625 L 7.296875 0 L 2.4375 0 L 2.4375 -1.625 Z M 0.8125 -1.625 L 0.8125 -8.109375 L 2.4375 -8.109375 L 2.4375 -1.625 Z M 7.296875 -1.625 L 7.296875 -8.109375 L 8.921875 -8.109375 L 8.921875 -1.625 Z M 7.296875 -1.625 "/></g></g></g><g fill="#000000" fill-opacity="0.4"><g transform="translate(202.972003, 104.250683)"><g><path d="M 2.4375 -3.25 L 2.4375 -6.484375 L 5.671875 -6.484375 L 5.671875 -4.859375 L 4.046875 -4.859375 L 4.046875 -3.25 Z M 0.8125 -8.109375 L 0.8125 -9.734375 L 2.4375 -9.734375 L 2.4375 -8.109375 Z M 2.4375 0 L 2.4375 -1.625 L 4.046875 -1.625 L 4.046875 0 Z M 2.4375 -9.734375 L 2.4375 -11.359375 L 5.671875 -11.359375 L 5.671875 -9.734375 Z M 5.671875 -6.484375 L 5.671875 -9.734375 L 7.296875 -9.734375 L 7.296875 -6.484375 Z M 5.671875 -6.484375 "/></g></g></g><g fill="#000000" fill-opacity="1"><g transform="translate(140.942767, 103.018316)"><g><path d="M 2.4375 0 L 2.4375 -1.625 L 7.296875 -1.625 L 7.296875 -3.25 L 2.4375 -3.25 L 2.4375 -4.859375 L 7.296875 -4.859375 L 7.296875 -6.484375 L 8.921875 -6.484375 L 8.921875 0 Z M 0.8125 -1.625 L 0.8125 -3.25 L 2.4375 -3.25 L 2.4375 -1.625 Z M 2.4375 -6.484375 L 2.4375 -8.109375 L 7.296875 -8.109375 L 7.296875 -6.484375 Z M 2.4375 -6.484375 "/></g></g></g><g fill="#000000" fill-opacity="1"><g transform="translate(150.670268, 103.018316)"><g><path d="M 0.8125 0 L 0.8125 -8.109375 L 2.4375 -8.109375 L 2.4375 -6.484375 L 4.046875 -6.484375 L 4.046875 -4.859375 L 2.4375 -4.859375 L 2.4375 0 Z M 4.046875 -6.484375 L 4.046875 -8.109375 L 7.296875 -8.109375 L 7.296875 -6.484375 Z M 4.046875 -6.484375 "/></g></g></g><g fill="#000000" fill-opacity="1"><g transform="translate(158.776516, 103.018316)"><g><path d="M 0.8125 -1.625 L 0.8125 -6.484375 L 2.4375 -6.484375 L 2.4375 -4.859375 L 7.296875 -4.859375 L 7.296875 -3.25 L 2.4375 -3.25 L 2.4375 -1.625 Z M 2.4375 0 L 2.4375 -1.625 L 7.296875 -1.625 L 7.296875 0 Z M 2.4375 -6.484375 L 2.4375 -8.109375 L 7.296875 -8.109375 L 7.296875 -6.484375 Z M 7.296875 -4.859375 L 7.296875 -6.484375 L 8.921875 -6.484375 L 8.921875 -4.859375 Z M 7.296875 -4.859375 "/></g></g></g><g fill="#000000" fill-opacity="1"><g transform="translate(168.504018, 103.018316)"><g/></g></g><g fill="#000000" fill-opacity="1"><g transform="translate(172.557131, 103.018316)"><g><path d="M 7.296875 1.625 L 7.296875 3.25 L 2.4375 3.25 L 2.4375 1.625 Z M 0.8125 -1.625 L 0.8125 -8.109375 L 2.4375 -8.109375 L 2.4375 -1.625 Z M 2.4375 0 L 2.4375 -1.625 L 7.296875 -1.625 L 7.296875 -8.109375 L 8.921875 -8.109375 L 8.921875 1.625 L 7.296875 1.625 L 7.296875 0 Z M 2.4375 0 "/></g></g></g><g fill="#000000" fill-opacity="1"><g transform="translate(182.284633, 103.018316)"><g><path d="M 7.296875 -1.625 L 7.296875 0 L 2.4375 0 L 2.4375 -1.625 Z M 0.8125 -1.625 L 0.8125 -6.484375 L 2.4375 -6.484375 L 2.4375 -1.625 Z M 2.4375 -6.484375 L 2.4375 -8.109375 L 7.296875 -8.109375 L 7.296875 -6.484375 Z M 7.296875 -1.625 L 7.296875 -6.484375 L 8.921875 -6.484375 L 8.921875 -1.625 Z M 7.296875 -1.625 "/></g></g></g><g fill="#000000" fill-opacity="1"><g transform="translate(192.012134, 103.018316)"><g><path d="M 7.296875 -1.625 L 7.296875 0 L 2.4375 0 L 2.4375 -1.625 Z M 0.8125 -1.625 L 0.8125 -8.109375 L 2.4375 -8.109375 L 2.4375 -1.625 Z M 7.296875 -1.625 L 7.296875 -8.109375 L 8.921875 -8.109375 L 8.921875 -1.625 Z M 7.296875 -1.625 "/></g></g></g><g fill="#000000" fill-opacity="1"><g transform="translate(201.739635, 103.018316)"><g><path d="M 2.4375 -3.25 L 2.4375 -6.484375 L 5.671875 -6.484375 L 5.671875 -4.859375 L 4.046875 -4.859375 L 4.046875 -3.25 Z M 0.8125 -8.109375 L 0.8125 -9.734375 L 2.4375 -9.734375 L 2.4375 -8.109375 Z M 2.4375 0 L 2.4375 -1.625 L 4.046875 -1.625 L 4.046875 0 Z M 2.4375 -9.734375 L 2.4375 -11.359375 L 5.671875 -11.359375 L 5.671875 -9.734375 Z M 5.671875 -6.484375 L 5.671875 -9.734375 L 7.296875 -9.734375 L 7.296875 -6.484375 Z M 5.671875 -6.484375 "/></g></g></g><g clip-path="url(#a7fa7b3e28)"><path fill="#474743" d="M 176.789062 60.902344 L 174.457031 60.902344 L 174.457031 58.542969 L 172.109375 58.542969 L 172.109375 56.1875 L 66.386719 56.1875 L 66.386719 58.542969 L 64.039062 58.542969 L 64.039062 60.902344 L 61.6875 60.902344 L 61.6875 80.960938 L 62.417969 80.960938 L 62.417969 82.117188 L 64.039062 82.117188 L 64.039062 83.316406 L 64.765625 83.316406 L 64.765625 84.472656 L 66.386719 84.472656 L 66.386719 85.675781 L 172.085938 85.675781 L 172.085938 83.316406 L 174.4375 83.316406 L 174.4375 80.960938 L 176.789062 80.960938 Z M 172.835938 77.003906 L 170.488281 77.003906 L 170.488281 79.359375 L 168.136719 79.359375 L 168.136719 81.71875 L 68.71875 81.71875 L 68.71875 79.359375 L 66.367188 79.359375 L 66.367188 77.003906 L 64.015625 77.003906 L 64.015625 62.101562 L 66.367188 62.101562 L 66.367188 59.746094 L 68.71875 59.746094 L 68.71875 57.386719 L 168.136719 57.386719 L 168.136719 59.746094 L 170.488281 59.746094 L 170.488281 62.101562 L 172.835938 62.101562 Z M 172.835938 77.003906 " fill-opacity="1" fill-rule="nonzero"/></g><g clip-path="url(#97eb0ce3d5)"><path fill="#1d1d1b" d="M 162.90625 51.703125 L 162.90625 54.394531 L 160.222656 54.394531 L 160.222656 56.125 L 66.328125 56.125 L 66.328125 58.484375 L 63.980469 58.484375 L 63.980469 60.839844 L 61.628906 60.839844 L 61.628906 82.175781 L 63.980469 82.175781 L 63.980469 84.535156 L 66.328125 84.535156 L 66.328125 86.890625 L 172.171875 86.890625 L 172.171875 84.535156 L 174.519531 84.535156 L 174.519531 82.175781 L 176.871094 82.175781 L 176.871094 62.585938 L 179.117188 62.585938 L 179.117188 54.394531 L 176.4375 54.394531 L 176.4375 51.703125 L 170.949219 51.703125 L 170.949219 54.394531 L 168.390625 54.394531 L 168.390625 51.703125 Z M 171.070312 67.964844 L 171.070312 65.277344 L 174.398438 65.277344 L 174.398438 79.699219 L 172.050781 79.699219 L 172.050781 82.054688 L 169.699219 82.054688 L 169.699219 84.414062 L 68.800781 84.414062 L 68.800781 82.054688 L 66.449219 82.054688 L 66.449219 79.699219 L 64.101562 79.699219 L 64.101562 63.316406 L 66.449219 63.316406 L 66.449219 60.960938 L 68.800781 60.960938 L 68.800781 58.605469 L 160.222656 58.605469 L 160.222656 62.585938 L 162.90625 62.585938 L 162.90625 65.277344 L 168.269531 65.277344 L 168.269531 67.964844 Z M 171.070312 67.964844 " fill-opacity="1" fill-rule="nonzero"/></g><path fill="#f779b2" d="M 162.964844 62.527344 L 162.964844 54.453125 L 168.328125 54.453125 L 168.328125 57.144531 L 171.011719 57.144531 L 171.011719 54.453125 L 176.375 54.453125 L 176.375 62.527344 L 171.011719 62.527344 L 171.011719 65.21875 L 168.328125 65.21875 L 168.328125 62.527344 Z M 162.964844 62.527344 " fill-opacity="1" fill-rule="nonzero"/><g clip-path="url(#3c1792112d)"><path fill="#b2a63b" d="M 66.328125 56.121094 L 68.796875 56.121094 L 68.796875 58.597656 L 66.328125 58.597656 Z M 82.777344 86.886719 L 85.246094 86.886719 L 85.246094 84.410156 L 82.777344 84.410156 Z M 174.398438 82.171875 L 176.867188 82.171875 L 176.867188 79.695312 L 174.398438 79.695312 Z M 174.398438 82.171875 " fill-opacity="1" fill-rule="nonzero"/></g><g fill="#000000" fill-opacity="0.4"><g transform="translate(97.338354, 77.720534)"><g><path d="M 0.8125 0 L 0.8125 -11.359375 L 2.4375 -11.359375 L 2.4375 -1.625 L 8.921875 -1.625 L 8.921875 0 Z M 0.8125 0 "/></g></g></g><g fill="#000000" fill-opacity="0.4"><g transform="translate(107.065856, 77.720534)"><g><path d="M 7.296875 -1.625 L 7.296875 0 L 2.4375 0 L 2.4375 -1.625 Z M 0.8125 -1.625 L 0.8125 -9.734375 L 2.4375 -9.734375 L 2.4375 -1.625 Z M 2.4375 -9.734375 L 2.4375 -11.359375 L 7.296875 -11.359375 L 7.296875 -9.734375 Z M 7.296875 -1.625 L 7.296875 -9.734375 L 8.921875 -9.734375 L 8.921875 -1.625 Z M 7.296875 -1.625 "/></g></g></g><g fill="#000000" fill-opacity="0.4"><g transform="translate(116.793357, 77.720534)"><g><path d="M 7.296875 -6.484375 L 7.296875 -3.25 L 5.671875 -3.25 L 5.671875 -6.484375 Z M 0.8125 -6.484375 L 0.8125 -11.359375 L 2.4375 -11.359375 L 2.4375 -6.484375 Z M 2.4375 -3.25 L 2.4375 -6.484375 L 4.046875 -6.484375 L 4.046875 -3.25 Z M 4.046875 0 L 4.046875 -3.25 L 5.671875 -3.25 L 5.671875 0 Z M 7.296875 -6.484375 L 7.296875 -11.359375 L 8.921875 -11.359375 L 8.921875 -6.484375 Z M 7.296875 -6.484375 "/></g></g></g><g fill="#000000" fill-opacity="0.4"><g transform="translate(126.520858, 77.720534)"><g><path d="M 0.8125 0 L 0.8125 -11.359375 L 8.921875 -11.359375 L 8.921875 -9.734375 L 2.4375 -9.734375 L 2.4375 -6.484375 L 7.296875 -6.484375 L 7.296875 -4.859375 L 2.4375 -4.859375 L 2.4375 -1.625 L 8.90625 -1.625 L 8.90625 0 Z M 0.8125 0 "/></g></g></g><g fill="#000000" fill-opacity="0.4"><g transform="translate(136.24836, 77.720534)"><g><path d="M 0.8125 0 L 0.8125 -11.359375 L 7.296875 -11.359375 L 7.296875 -9.734375 L 2.4375 -9.734375 L 2.4375 -6.484375 L 7.296875 -6.484375 L 7.296875 -4.859375 L 5.671875 -4.859375 L 5.671875 -3.25 L 4.046875 -3.25 L 4.046875 -4.859375 L 2.4375 -4.859375 L 2.4375 0 Z M 5.671875 -1.625 L 5.671875 -3.25 L 7.296875 -3.25 L 7.296875 -1.625 Z M 7.296875 0 L 7.296875 -1.625 L 8.921875 -1.625 L 8.921875 0 Z M 7.296875 -6.484375 L 7.296875 -9.734375 L 8.921875 -9.734375 L 8.921875 -6.484375 Z M 7.296875 -6.484375 "/></g></g></g><g fill="#ff66c4" fill-opacity="1"><g transform="translate(96.105987, 76.488167)"><g><path d="M 0.8125 0 L 0.8125 -11.359375 L 2.4375 -11.359375 L 2.4375 -1.625 L 8.921875 -1.625 L 8.921875 0 Z M 0.8125 0 "/></g></g></g><g fill="#ff66c4" fill-opacity="1"><g transform="translate(105.833488, 76.488167)"><g><path d="M 7.296875 -1.625 L 7.296875 0 L 2.4375 0 L 2.4375 -1.625 Z M 0.8125 -1.625 L 0.8125 -9.734375 L 2.4375 -9.734375 L 2.4375 -1.625 Z M 2.4375 -9.734375 L 2.4375 -11.359375 L 7.296875 -11.359375 L 7.296875 -9.734375 Z M 7.296875 -1.625 L 7.296875 -9.734375 L 8.921875 -9.734375 L 8.921875 -1.625 Z M 7.296875 -1.625 "/></g></g></g><g fill="#ff66c4" fill-opacity="1"><g transform="translate(115.56099, 76.488167)"><g><path d="M 7.296875 -6.484375 L 7.296875 -3.25 L 5.671875 -3.25 L 5.671875 -6.484375 Z M 0.8125 -6.484375 L 0.8125 -11.359375 L 2.4375 -11.359375 L 2.4375 -6.484375 Z M 2.4375 -3.25 L 2.4375 -6.484375 L 4.046875 -6.484375 L 4.046875 -3.25 Z M 4.046875 0 L 4.046875 -3.25 L 5.671875 -3.25 L 5.671875 0 Z M 7.296875 -6.484375 L 7.296875 -11.359375 L 8.921875 -11.359375 L 8.921875 -6.484375 Z M 7.296875 -6.484375 "/></g></g></g><g fill="#ff66c4" fill-opacity="1"><g transform="translate(125.288491, 76.488167)"><g><path d="M 0.8125 0 L 0.8125 -11.359375 L 8.921875 -11.359375 L 8.921875 -9.734375 L 2.4375 -9.734375 L 2.4375 -6.484375 L 7.296875 -6.484375 L 7.296875 -4.859375 L 2.4375 -4.859375 L 2.4375 -1.625 L 8.90625 -1.625 L 8.90625 0 Z M 0.8125 0 "/></g></g></g><g fill="#ff66c4" fill-opacity="1"><g transform="translate(135.015993, 76.488167)"><g><path d="M 0.8125 0 L 0.8125 -11.359375 L 7.296875 -11.359375 L 7.296875 -9.734375 L 2.4375 -9.734375 L 2.4375 -6.484375 L 7.296875 -6.484375 L 7.296875 -4.859375 L 5.671875 -4.859375 L 5.671875 -3.25 L 4.046875 -3.25 L 4.046875 -4.859375 L 2.4375 -4.859375 L 2.4375 0 Z M 5.671875 -1.625 L 5.671875 -3.25 L 7.296875 -3.25 L 7.296875 -1.625 Z M 7.296875 0 L 7.296875 -1.625 L 8.921875 -1.625 L 8.921875 0 Z M 7.296875 -6.484375 L 7.296875 -9.734375 L 8.921875 -9.734375 L 8.921875 -6.484375 Z M 7.296875 -6.484375 "/></g></g></g></svg>