<svg xmlns="http://www.w3.org/2000/svg" xmlns:xlink="http://www.w3.org/1999/xlink" width="321" zoomAndPan="magnify" viewBox="0 0 240.75 141.750002" height="189" preserveAspectRatio="xMidYMid meet" version="1.0"><defs><g/><clipPath id="88e079c956"><path d="M 0.0859375 0 L 240.414062 0 L 240.414062 141.5 L 0.0859375 141.5 Z M 0.0859375 0 " clip-rule="nonzero"/></clipPath><clipPath id="7595fe49ee"><path d="M 61.523438 56 L 177 56 L 177 86 L 61.523438 86 Z M 61.523438 56 " clip-rule="nonzero"/></clipPath><clipPath id="3bfec10599"><path d="M 61.523438 51.71875 L 179.03125 51.71875 L 179.03125 86.898438 L 61.523438 86.898438 Z M 61.523438 51.71875 " clip-rule="nonzero"/></clipPath><clipPath id="4c0101172b"><path d="M 66 56 L 177 56 L 177 86.898438 L 66 86.898438 Z M 66 56 " clip-rule="nonzero"/></clipPath></defs><g clip-path="url(#88e079c956)"><path fill="#ffffff" d="M 0.0859375 0 L 240.414062 0 L 240.414062 141.5 L 0.0859375 141.5 Z M 0.0859375 0 " fill-opacity="1" fill-rule="nonzero"/><path fill="#ffffff" d="M 0.0859375 0 L 240.414062 0 L 240.414062 141.5 L 0.0859375 141.5 Z M 0.0859375 0 " fill-opacity="1" fill-rule="nonzero"/></g><g fill="#000000" fill-opacity="0.4"><g transform="translate(32.009044, 47.81816)"><g><path d="M 7.296875 -1.625 L 7.296875 0 L 5.671875 0 L 5.671875 -1.625 Z M 0.8125 -1.625 L 0.8125 -11.34375 L 2.4375 -11.34375 L 2.4375 -1.625 Z M 2.4375 0 L 2.4375 -1.625 L 4.046875 -1.625 L 4.046875 0 Z M 4.046875 -1.625 L 4.046875 -4.859375 L 5.671875 -4.859375 L 5.671875 -1.625 Z M 7.296875 -1.625 L 7.296875 -11.34375 L 8.90625 -11.34375 L 8.90625 -1.625 Z M 7.296875 -1.625 "/></g></g></g><g fill="#000000" fill-opacity="0.4"><g transform="translate(41.733865, 47.81816)"><g><path d="M 0.8125 0 L 0.8125 -11.34375 L 2.4375 -11.34375 L 2.4375 -6.484375 L 4.046875 -6.484375 L 4.046875 -4.859375 L 2.4375 -4.859375 L 2.4375 0 Z M 4.046875 -6.484375 L 4.046875 -8.109375 L 7.296875 -8.109375 L 7.296875 -6.484375 Z M 7.296875 0 L 7.296875 -6.484375 L 8.90625 -6.484375 L 8.90625 0 Z M 7.296875 0 "/></g></g></g><g fill="#000000" fill-opacity="0.4"><g transform="translate(51.458687, 47.81816)"><g><path d="M 2.4375 0 L 2.4375 -1.625 L 7.296875 -1.625 L 7.296875 -3.234375 L 2.4375 -3.234375 L 2.4375 -4.859375 L 7.296875 -4.859375 L 7.296875 -6.484375 L 8.90625 -6.484375 L 8.90625 0 Z M 0.8125 -1.625 L 0.8125 -3.234375 L 2.4375 -3.234375 L 2.4375 -1.625 Z M 2.4375 -6.484375 L 2.4375 -8.109375 L 7.296875 -8.109375 L 7.296875 -6.484375 Z M 2.4375 -6.484375 "/></g></g></g><g fill="#000000" fill-opacity="0.4"><g transform="translate(61.183508, 47.81816)"><g><path d="M 0.8125 -1.625 L 0.8125 -11.34375 L 2.4375 -11.34375 L 2.4375 -8.109375 L 5.671875 -8.109375 L 5.671875 -6.484375 L 2.4375 -6.484375 L 2.4375 -1.625 Z M 2.4375 0 L 2.4375 -1.625 L 5.671875 -1.625 L 5.671875 0 Z M 2.4375 0 "/></g></g></g><g fill="#000000" fill-opacity="0.4"><g transform="translate(67.666716, 47.81816)"><g/></g></g><g fill="#000000" fill-opacity="0.4"><g transform="translate(71.718713, 47.81816)"><g><path d="M 0.8125 -1.625 L 0.8125 -11.34375 L 2.4375 -11.34375 L 2.4375 -8.109375 L 5.671875 -8.109375 L 5.671875 -6.484375 L 2.4375 -6.484375 L 2.4375 -1.625 Z M 2.4375 0 L 2.4375 -1.625 L 5.671875 -1.625 L 5.671875 0 Z M 2.4375 0 "/></g></g></g><g fill="#000000" fill-opacity="0.4"><g transform="translate(78.20192, 47.81816)"><g><path d="M 7.296875 1.625 L 7.296875 3.234375 L 2.4375 3.234375 L 2.4375 1.625 Z M 0.8125 -1.625 L 0.8125 -8.109375 L 2.4375 -8.109375 L 2.4375 -1.625 Z M 2.4375 0 L 2.4375 -1.625 L 7.296875 -1.625 L 7.296875 -8.109375 L 8.90625 -8.109375 L 8.90625 1.625 L 7.296875 1.625 L 7.296875 0 Z M 2.4375 0 "/></g></g></g><g fill="#000000" fill-opacity="0.4"><g transform="translate(87.926742, 47.81816)"><g><path d="M 0.8125 3.234375 L 0.8125 -8.109375 L 7.296875 -8.109375 L 7.296875 -6.484375 L 2.4375 -6.484375 L 2.4375 -1.625 L 7.296875 -1.625 L 7.296875 0 L 2.4375 0 L 2.4375 3.234375 Z M 7.296875 -1.625 L 7.296875 -6.484375 L 8.90625 -6.484375 L 8.90625 -1.625 Z M 7.296875 -1.625 "/></g></g></g><g fill="#000000" fill-opacity="0.4"><g transform="translate(97.651563, 47.81816)"><g><path d="M 0.8125 -1.625 L 0.8125 -6.484375 L 2.4375 -6.484375 L 2.4375 -4.859375 L 7.296875 -4.859375 L 7.296875 -3.234375 L 2.4375 -3.234375 L 2.4375 -1.625 Z M 2.4375 0 L 2.4375 -1.625 L 7.296875 -1.625 L 7.296875 0 Z M 2.4375 -6.484375 L 2.4375 -8.109375 L 7.296875 -8.109375 L 7.296875 -6.484375 Z M 7.296875 -4.859375 L 7.296875 -6.484375 L 8.90625 -6.484375 L 8.90625 -4.859375 Z M 7.296875 -4.859375 "/></g></g></g><g fill="#000000" fill-opacity="0.4"><g transform="translate(107.376385, 47.81816)"><g/></g></g><g fill="#000000" fill-opacity="0.4"><g transform="translate(111.428382, 47.81816)"><g><path d="M 7.296875 -1.625 L 7.296875 0 L 2.4375 0 L 2.4375 -1.625 Z M 0.8125 -1.625 L 0.8125 -6.484375 L 2.4375 -6.484375 L 2.4375 -1.625 Z M 2.4375 -6.484375 L 2.4375 -8.109375 L 7.296875 -8.109375 L 7.296875 -6.484375 Z M 7.296875 -1.625 L 7.296875 -6.484375 L 8.90625 -6.484375 L 8.90625 -1.625 Z M 7.296875 -1.625 "/></g></g></g><g fill="#000000" fill-opacity="0.4"><g transform="translate(121.153203, 47.81816)"><g><path d="M 0.8125 0 L 0.8125 -9.71875 L 2.4375 -9.71875 L 2.4375 -8.109375 L 5.671875 -8.109375 L 5.671875 -6.484375 L 2.4375 -6.484375 L 2.4375 0 Z M 2.4375 -9.71875 L 2.4375 -11.34375 L 5.671875 -11.34375 L 5.671875 -9.71875 Z M 2.4375 -9.71875 "/></g></g></g><g fill="#000000" fill-opacity="1"><g transform="translate(30.777016, 46.586132)"><g><path d="M 7.296875 -1.625 L 7.296875 0 L 5.671875 0 L 5.671875 -1.625 Z M 0.8125 -1.625 L 0.8125 -11.34375 L 2.4375 -11.34375 L 2.4375 -1.625 Z M 2.4375 0 L 2.4375 -1.625 L 4.046875 -1.625 L 4.046875 0 Z M 4.046875 -1.625 L 4.046875 -4.859375 L 5.671875 -4.859375 L 5.671875 -1.625 Z M 7.296875 -1.625 L 7.296875 -11.34375 L 8.90625 -11.34375 L 8.90625 -1.625 Z M 7.296875 -1.625 "/></g></g></g><g fill="#000000" fill-opacity="1"><g transform="translate(40.501838, 46.586132)"><g><path d="M 0.8125 0 L 0.8125 -11.34375 L 2.4375 -11.34375 L 2.4375 -6.484375 L 4.046875 -6.484375 L 4.046875 -4.859375 L 2.4375 -4.859375 L 2.4375 0 Z M 4.046875 -6.484375 L 4.046875 -8.109375 L 7.296875 -8.109375 L 7.296875 -6.484375 Z M 7.296875 0 L 7.296875 -6.484375 L 8.90625 -6.484375 L 8.90625 0 Z M 7.296875 0 "/></g></g></g><g fill="#000000" fill-opacity="1"><g transform="translate(50.226659, 46.586132)"><g><path d="M 2.4375 0 L 2.4375 -1.625 L 7.296875 -1.625 L 7.296875 -3.234375 L 2.4375 -3.234375 L 2.4375 -4.859375 L 7.296875 -4.859375 L 7.296875 -6.484375 L 8.90625 -6.484375 L 8.90625 0 Z M 0.8125 -1.625 L 0.8125 -3.234375 L 2.4375 -3.234375 L 2.4375 -1.625 Z M 2.4375 -6.484375 L 2.4375 -8.109375 L 7.296875 -8.109375 L 7.296875 -6.484375 Z M 2.4375 -6.484375 "/></g></g></g><g fill="#000000" fill-opacity="1"><g transform="translate(59.951481, 46.586132)"><g><path d="M 0.8125 -1.625 L 0.8125 -11.34375 L 2.4375 -11.34375 L 2.4375 -8.109375 L 5.671875 -8.109375 L 5.671875 -6.484375 L 2.4375 -6.484375 L 2.4375 -1.625 Z M 2.4375 0 L 2.4375 -1.625 L 5.671875 -1.625 L 5.671875 0 Z M 2.4375 0 "/></g></g></g><g fill="#000000" fill-opacity="1"><g transform="translate(66.434688, 46.586132)"><g/></g></g><g fill="#000000" fill-opacity="1"><g transform="translate(70.486685, 46.586132)"><g><path d="M 0.8125 -1.625 L 0.8125 -11.34375 L 2.4375 -11.34375 L 2.4375 -8.109375 L 5.671875 -8.109375 L 5.671875 -6.484375 L 2.4375 -6.484375 L 2.4375 -1.625 Z M 2.4375 0 L 2.4375 -1.625 L 5.671875 -1.625 L 5.671875 0 Z M 2.4375 0 "/></g></g></g><g fill="#000000" fill-opacity="1"><g transform="translate(76.969893, 46.586132)"><g><path d="M 7.296875 1.625 L 7.296875 3.234375 L 2.4375 3.234375 L 2.4375 1.625 Z M 0.8125 -1.625 L 0.8125 -8.109375 L 2.4375 -8.109375 L 2.4375 -1.625 Z M 2.4375 0 L 2.4375 -1.625 L 7.296875 -1.625 L 7.296875 -8.109375 L 8.90625 -8.109375 L 8.90625 1.625 L 7.296875 1.625 L 7.296875 0 Z M 2.4375 0 "/></g></g></g><g fill="#000000" fill-opacity="1"><g transform="translate(86.694714, 46.586132)"><g><path d="M 0.8125 3.234375 L 0.8125 -8.109375 L 7.296875 -8.109375 L 7.296875 -6.484375 L 2.4375 -6.484375 L 2.4375 -1.625 L 7.296875 -1.625 L 7.296875 0 L 2.4375 0 L 2.4375 3.234375 Z M 7.296875 -1.625 L 7.296875 -6.484375 L 8.90625 -6.484375 L 8.90625 -1.625 Z M 7.296875 -1.625 "/></g></g></g><g fill="#000000" fill-opacity="1"><g transform="translate(96.419536, 46.586132)"><g><path d="M 0.8125 -1.625 L 0.8125 -6.484375 L 2.4375 -6.484375 L 2.4375 -4.859375 L 7.296875 -4.859375 L 7.296875 -3.234375 L 2.4375 -3.234375 L 2.4375 -1.625 Z M 2.4375 0 L 2.4375 -1.625 L 7.296875 -1.625 L 7.296875 0 Z M 2.4375 -6.484375 L 2.4375 -8.109375 L 7.296875 -8.109375 L 7.296875 -6.484375 Z M 7.296875 -4.859375 L 7.296875 -6.484375 L 8.90625 -6.484375 L 8.90625 -4.859375 Z M 7.296875 -4.859375 "/></g></g></g><g fill="#000000" fill-opacity="1"><g transform="translate(106.144357, 46.586132)"><g/></g></g><g fill="#000000" fill-opacity="1"><g transform="translate(110.196354, 46.586132)"><g><path d="M 7.296875 -1.625 L 7.296875 0 L 2.4375 0 L 2.4375 -1.625 Z M 0.8125 -1.625 L 0.8125 -6.484375 L 2.4375 -6.484375 L 2.4375 -1.625 Z M 2.4375 -6.484375 L 2.4375 -8.109375 L 7.296875 -8.109375 L 7.296875 -6.484375 Z M 7.296875 -1.625 L 7.296875 -6.484375 L 8.90625 -6.484375 L 8.90625 -1.625 Z M 7.296875 -1.625 "/></g></g></g><g fill="#000000" fill-opacity="1"><g transform="translate(119.921176, 46.586132)"><g><path d="M 0.8125 0 L 0.8125 -9.71875 L 2.4375 -9.71875 L 2.4375 -8.109375 L 5.671875 -8.109375 L 5.671875 -6.484375 L 2.4375 -6.484375 L 2.4375 0 Z M 2.4375 -9.71875 L 2.4375 -11.34375 L 5.671875 -11.34375 L 5.671875 -9.71875 Z M 2.4375 -9.71875 "/></g></g></g><g fill="#000000" fill-opacity="0.4"><g transform="translate(142.07184, 104.250288)"><g><path d="M 2.4375 0 L 2.4375 -1.625 L 7.296875 -1.625 L 7.296875 -3.234375 L 2.4375 -3.234375 L 2.4375 -4.859375 L 7.296875 -4.859375 L 7.296875 -6.484375 L 8.90625 -6.484375 L 8.90625 0 Z M 0.8125 -1.625 L 0.8125 -3.234375 L 2.4375 -3.234375 L 2.4375 -1.625 Z M 2.4375 -6.484375 L 2.4375 -8.109375 L 7.296875 -8.109375 L 7.296875 -6.484375 Z M 2.4375 -6.484375 "/></g></g></g><g fill="#000000" fill-opacity="0.4"><g transform="translate(151.796662, 104.250288)"><g><path d="M 0.8125 0 L 0.8125 -8.109375 L 2.4375 -8.109375 L 2.4375 -6.484375 L 4.046875 -6.484375 L 4.046875 -4.859375 L 2.4375 -4.859375 L 2.4375 0 Z M 4.046875 -6.484375 L 4.046875 -8.109375 L 7.296875 -8.109375 L 7.296875 -6.484375 Z M 4.046875 -6.484375 "/></g></g></g><g fill="#000000" fill-opacity="0.4"><g transform="translate(159.900676, 104.250288)"><g><path d="M 0.8125 -1.625 L 0.8125 -6.484375 L 2.4375 -6.484375 L 2.4375 -4.859375 L 7.296875 -4.859375 L 7.296875 -3.234375 L 2.4375 -3.234375 L 2.4375 -1.625 Z M 2.4375 0 L 2.4375 -1.625 L 7.296875 -1.625 L 7.296875 0 Z M 2.4375 -6.484375 L 2.4375 -8.109375 L 7.296875 -8.109375 L 7.296875 -6.484375 Z M 7.296875 -4.859375 L 7.296875 -6.484375 L 8.90625 -6.484375 L 8.90625 -4.859375 Z M 7.296875 -4.859375 "/></g></g></g><g fill="#000000" fill-opacity="0.4"><g transform="translate(169.625498, 104.250288)"><g/></g></g><g fill="#000000" fill-opacity="0.4"><g transform="translate(173.677495, 104.250288)"><g><path d="M 7.296875 1.625 L 7.296875 3.234375 L 2.4375 3.234375 L 2.4375 1.625 Z M 0.8125 -1.625 L 0.8125 -8.109375 L 2.4375 -8.109375 L 2.4375 -1.625 Z M 2.4375 0 L 2.4375 -1.625 L 7.296875 -1.625 L 7.296875 -8.109375 L 8.90625 -8.109375 L 8.90625 1.625 L 7.296875 1.625 L 7.296875 0 Z M 2.4375 0 "/></g></g></g><g fill="#000000" fill-opacity="0.4"><g transform="translate(183.402316, 104.250288)"><g><path d="M 7.296875 -1.625 L 7.296875 0 L 2.4375 0 L 2.4375 -1.625 Z M 0.8125 -1.625 L 0.8125 -6.484375 L 2.4375 -6.484375 L 2.4375 -1.625 Z M 2.4375 -6.484375 L 2.4375 -8.109375 L 7.296875 -8.109375 L 7.296875 -6.484375 Z M 7.296875 -1.625 L 7.296875 -6.484375 L 8.90625 -6.484375 L 8.90625 -1.625 Z M 7.296875 -1.625 "/></g></g></g><g fill="#000000" fill-opacity="0.4"><g transform="translate(193.127138, 104.250288)"><g><path d="M 7.296875 -1.625 L 7.296875 0 L 2.4375 0 L 2.4375 -1.625 Z M 0.8125 -1.625 L 0.8125 -8.109375 L 2.4375 -8.109375 L 2.4375 -1.625 Z M 7.296875 -1.625 L 7.296875 -8.109375 L 8.90625 -8.109375 L 8.90625 -1.625 Z M 7.296875 -1.625 "/></g></g></g><g fill="#000000" fill-opacity="0.4"><g transform="translate(202.851959, 104.250288)"><g><path d="M 2.4375 -3.234375 L 2.4375 -6.484375 L 5.671875 -6.484375 L 5.671875 -4.859375 L 4.046875 -4.859375 L 4.046875 -3.234375 Z M 0.8125 -8.109375 L 0.8125 -9.71875 L 2.4375 -9.71875 L 2.4375 -8.109375 Z M 2.4375 0 L 2.4375 -1.625 L 4.046875 -1.625 L 4.046875 0 Z M 2.4375 -9.71875 L 2.4375 -11.34375 L 5.671875 -11.34375 L 5.671875 -9.71875 Z M 5.671875 -6.484375 L 5.671875 -9.71875 L 7.296875 -9.71875 L 7.296875 -6.484375 Z M 5.671875 -6.484375 "/></g></g></g><g fill="#000000" fill-opacity="1"><g transform="translate(140.839809, 103.018263)"><g><path d="M 2.4375 0 L 2.4375 -1.625 L 7.296875 -1.625 L 7.296875 -3.234375 L 2.4375 -3.234375 L 2.4375 -4.859375 L 7.296875 -4.859375 L 7.296875 -6.484375 L 8.90625 -6.484375 L 8.90625 0 Z M 0.8125 -1.625 L 0.8125 -3.234375 L 2.4375 -3.234375 L 2.4375 -1.625 Z M 2.4375 -6.484375 L 2.4375 -8.109375 L 7.296875 -8.109375 L 7.296875 -6.484375 Z M 2.4375 -6.484375 "/></g></g></g><g fill="#000000" fill-opacity="1"><g transform="translate(150.56463, 103.018263)"><g><path d="M 0.8125 0 L 0.8125 -8.109375 L 2.4375 -8.109375 L 2.4375 -6.484375 L 4.046875 -6.484375 L 4.046875 -4.859375 L 2.4375 -4.859375 L 2.4375 0 Z M 4.046875 -6.484375 L 4.046875 -8.109375 L 7.296875 -8.109375 L 7.296875 -6.484375 Z M 4.046875 -6.484375 "/></g></g></g><g fill="#000000" fill-opacity="1"><g transform="translate(158.668645, 103.018263)"><g><path d="M 0.8125 -1.625 L 0.8125 -6.484375 L 2.4375 -6.484375 L 2.4375 -4.859375 L 7.296875 -4.859375 L 7.296875 -3.234375 L 2.4375 -3.234375 L 2.4375 -1.625 Z M 2.4375 0 L 2.4375 -1.625 L 7.296875 -1.625 L 7.296875 0 Z M 2.4375 -6.484375 L 2.4375 -8.109375 L 7.296875 -8.109375 L 7.296875 -6.484375 Z M 7.296875 -4.859375 L 7.296875 -6.484375 L 8.90625 -6.484375 L 8.90625 -4.859375 Z M 7.296875 -4.859375 "/></g></g></g><g fill="#000000" fill-opacity="1"><g transform="translate(168.393466, 103.018263)"><g/></g></g><g fill="#000000" fill-opacity="1"><g transform="translate(172.445463, 103.018263)"><g><path d="M 7.296875 1.625 L 7.296875 3.234375 L 2.4375 3.234375 L 2.4375 1.625 Z M 0.8125 -1.625 L 0.8125 -8.109375 L 2.4375 -8.109375 L 2.4375 -1.625 Z M 2.4375 0 L 2.4375 -1.625 L 7.296875 -1.625 L 7.296875 -8.109375 L 8.90625 -8.109375 L 8.90625 1.625 L 7.296875 1.625 L 7.296875 0 Z M 2.4375 0 "/></g></g></g><g fill="#000000" fill-opacity="1"><g transform="translate(182.170285, 103.018263)"><g><path d="M 7.296875 -1.625 L 7.296875 0 L 2.4375 0 L 2.4375 -1.625 Z M 0.8125 -1.625 L 0.8125 -6.484375 L 2.4375 -6.484375 L 2.4375 -1.625 Z M 2.4375 -6.484375 L 2.4375 -8.109375 L 7.296875 -8.109375 L 7.296875 -6.484375 Z M 7.296875 -1.625 L 7.296875 -6.484375 L 8.90625 -6.484375 L 8.90625 -1.625 Z M 7.296875 -1.625 "/></g></g></g><g fill="#000000" fill-opacity="1"><g transform="translate(191.895106, 103.018263)"><g><path d="M 7.296875 -1.625 L 7.296875 0 L 2.4375 0 L 2.4375 -1.625 Z M 0.8125 -1.625 L 0.8125 -8.109375 L 2.4375 -8.109375 L 2.4375 -1.625 Z M 7.296875 -1.625 L 7.296875 -8.109375 L 8.90625 -8.109375 L 8.90625 -1.625 Z M 7.296875 -1.625 "/></g></g></g><g fill="#000000" fill-opacity="1"><g transform="translate(201.619928, 103.018263)"><g><path d="M 2.4375 -3.234375 L 2.4375 -6.484375 L 5.671875 -6.484375 L 5.671875 -4.859375 L 4.046875 -4.859375 L 4.046875 -3.234375 Z M 0.8125 -8.109375 L 0.8125 -9.71875 L 2.4375 -9.71875 L 2.4375 -8.109375 Z M 2.4375 0 L 2.4375 -1.625 L 4.046875 -1.625 L 4.046875 0 Z M 2.4375 -9.71875 L 2.4375 -11.34375 L 5.671875 -11.34375 L 5.671875 -9.71875 Z M 5.671875 -6.484375 L 5.671875 -9.71875 L 7.296875 -9.71875 L 7.296875 -6.484375 Z M 5.671875 -6.484375 "/></g></g></g><g clip-path="url(#7595fe49ee)"><path fill="#474743" d="M 176.675781 60.914062 L 174.347656 60.914062 L 174.347656 58.554688 L 171.996094 58.554688 L 171.996094 56.199219 L 66.304688 56.199219 L 66.304688 58.554688 L 63.957031 58.554688 L 63.957031 60.914062 L 61.609375 60.914062 L 61.609375 80.964844 L 62.335938 80.964844 L 62.335938 82.121094 L 63.957031 82.121094 L 63.957031 83.320312 L 64.683594 83.320312 L 64.683594 84.480469 L 66.304688 84.480469 L 66.304688 85.679688 L 171.976562 85.679688 L 171.976562 83.320312 L 174.324219 83.320312 L 174.324219 80.964844 L 176.675781 80.964844 Z M 172.726562 77.011719 L 170.378906 77.011719 L 170.378906 79.367188 L 168.027344 79.367188 L 168.027344 81.722656 L 68.632812 81.722656 L 68.632812 79.367188 L 66.285156 79.367188 L 66.285156 77.011719 L 63.9375 77.011719 L 63.9375 62.113281 L 66.285156 62.113281 L 66.285156 59.757812 L 68.632812 59.757812 L 68.632812 57.398438 L 168.027344 57.398438 L 168.027344 59.757812 L 170.378906 59.757812 L 170.378906 62.113281 L 172.726562 62.113281 Z M 172.726562 77.011719 " fill-opacity="1" fill-rule="nonzero"/></g><g clip-path="url(#3bfec10599)"><path fill="#1d1d1b" d="M 162.796875 51.71875 L 162.796875 54.40625 L 160.117188 54.40625 L 160.117188 56.140625 L 66.246094 56.140625 L 66.246094 58.496094 L 63.898438 58.496094 L 63.898438 60.851562 L 61.546875 60.851562 L 61.546875 82.179688 L 63.898438 82.179688 L 63.898438 84.539062 L 66.246094 84.539062 L 66.246094 86.894531 L 172.058594 86.894531 L 172.058594 84.539062 L 174.40625 84.539062 L 174.40625 82.179688 L 176.757812 82.179688 L 176.757812 62.597656 L 179.003906 62.597656 L 179.003906 54.40625 L 176.324219 54.40625 L 176.324219 51.71875 L 170.839844 51.71875 L 170.839844 54.40625 L 168.28125 54.40625 L 168.28125 51.71875 Z M 170.960938 67.976562 L 170.960938 65.289062 L 174.289062 65.289062 L 174.289062 79.703125 L 171.9375 79.703125 L 171.9375 82.0625 L 169.589844 82.0625 L 169.589844 84.417969 L 68.71875 84.417969 L 68.71875 82.0625 L 66.367188 82.0625 L 66.367188 79.703125 L 64.019531 79.703125 L 64.019531 63.328125 L 66.367188 63.328125 L 66.367188 60.972656 L 68.71875 60.972656 L 68.71875 58.617188 L 160.117188 58.617188 L 160.117188 62.597656 L 162.796875 62.597656 L 162.796875 65.289062 L 168.160156 65.289062 L 168.160156 67.976562 Z M 170.960938 67.976562 " fill-opacity="1" fill-rule="nonzero"/></g><path fill="#f779b2" d="M 162.855469 62.535156 L 162.855469 54.46875 L 168.21875 54.46875 L 168.21875 57.15625 L 170.898438 57.15625 L 170.898438 54.46875 L 176.261719 54.46875 L 176.261719 62.535156 L 170.898438 62.535156 L 170.898438 65.226562 L 168.21875 65.226562 L 168.21875 62.535156 Z M 162.855469 62.535156 " fill-opacity="1" fill-rule="nonzero"/><g clip-path="url(#4c0101172b)"><path fill="#b2a63b" d="M 66.246094 56.136719 L 68.714844 56.136719 L 68.714844 58.613281 L 66.246094 58.613281 Z M 82.691406 86.890625 L 85.160156 86.890625 L 85.160156 84.414062 L 82.691406 84.414062 Z M 174.285156 82.179688 L 176.753906 82.179688 L 176.753906 79.703125 L 174.285156 79.703125 Z M 174.285156 82.179688 " fill-opacity="1" fill-rule="nonzero"/></g><g fill="#000000" fill-opacity="0.4"><g transform="translate(97.24743, 77.727458)"><g><path d="M 0.8125 0 L 0.8125 -11.34375 L 2.4375 -11.34375 L 2.4375 -1.625 L 8.90625 -1.625 L 8.90625 0 Z M 0.8125 0 "/></g></g></g><g fill="#000000" fill-opacity="0.4"><g transform="translate(106.972251, 77.727458)"><g><path d="M 7.296875 -1.625 L 7.296875 0 L 2.4375 0 L 2.4375 -1.625 Z M 0.8125 -1.625 L 0.8125 -9.71875 L 2.4375 -9.71875 L 2.4375 -1.625 Z M 2.4375 -9.71875 L 2.4375 -11.34375 L 7.296875 -11.34375 L 7.296875 -9.71875 Z M 7.296875 -1.625 L 7.296875 -9.71875 L 8.90625 -9.71875 L 8.90625 -1.625 Z M 7.296875 -1.625 "/></g></g></g><g fill="#000000" fill-opacity="0.4"><g transform="translate(116.697073, 77.727458)"><g><path d="M 7.296875 -6.484375 L 7.296875 -3.234375 L 5.671875 -3.234375 L 5.671875 -6.484375 Z M 0.8125 -6.484375 L 0.8125 -11.34375 L 2.4375 -11.34375 L 2.4375 -6.484375 Z M 2.4375 -3.234375 L 2.4375 -6.484375 L 4.046875 -6.484375 L 4.046875 -3.234375 Z M 4.046875 0 L 4.046875 -3.234375 L 5.671875 -3.234375 L 5.671875 0 Z M 7.296875 -6.484375 L 7.296875 -11.34375 L 8.90625 -11.34375 L 8.90625 -6.484375 Z M 7.296875 -6.484375 "/></g></g></g><g fill="#000000" fill-opacity="0.4"><g transform="translate(126.421894, 77.727458)"><g><path d="M 0.8125 0 L 0.8125 -11.34375 L 8.90625 -11.34375 L 8.90625 -9.71875 L 2.4375 -9.71875 L 2.4375 -6.484375 L 7.296875 -6.484375 L 7.296875 -4.859375 L 2.4375 -4.859375 L 2.4375 -1.625 L 8.890625 -1.625 L 8.890625 0 Z M 0.8125 0 "/></g></g></g><g fill="#000000" fill-opacity="0.4"><g transform="translate(136.146716, 77.727458)"><g><path d="M 0.8125 0 L 0.8125 -11.34375 L 7.296875 -11.34375 L 7.296875 -9.71875 L 2.4375 -9.71875 L 2.4375 -6.484375 L 7.296875 -6.484375 L 7.296875 -4.859375 L 5.671875 -4.859375 L 5.671875 -3.234375 L 4.046875 -3.234375 L 4.046875 -4.859375 L 2.4375 -4.859375 L 2.4375 0 Z M 5.671875 -1.625 L 5.671875 -3.234375 L 7.296875 -3.234375 L 7.296875 -1.625 Z M 7.296875 0 L 7.296875 -1.625 L 8.90625 -1.625 L 8.90625 0 Z M 7.296875 -6.484375 L 7.296875 -9.71875 L 8.90625 -9.71875 L 8.90625 -6.484375 Z M 7.296875 -6.484375 "/></g></g></g><g fill="#ff66c4" fill-opacity="1"><g transform="translate(96.015407, 76.495435)"><g><path d="M 0.8125 0 L 0.8125 -11.34375 L 2.4375 -11.34375 L 2.4375 -1.625 L 8.90625 -1.625 L 8.90625 0 Z M 0.8125 0 "/></g></g></g><g fill="#ff66c4" fill-opacity="1"><g transform="translate(105.740229, 76.495435)"><g><path d="M 7.296875 -1.625 L 7.296875 0 L 2.4375 0 L 2.4375 -1.625 Z M 0.8125 -1.625 L 0.8125 -9.71875 L 2.4375 -9.71875 L 2.4375 -1.625 Z M 2.4375 -9.71875 L 2.4375 -11.34375 L 7.296875 -11.34375 L 7.296875 -9.71875 Z M 7.296875 -1.625 L 7.296875 -9.71875 L 8.90625 -9.71875 L 8.90625 -1.625 Z M 7.296875 -1.625 "/></g></g></g><g fill="#ff66c4" fill-opacity="1"><g transform="translate(115.46505, 76.495435)"><g><path d="M 7.296875 -6.484375 L 7.296875 -3.234375 L 5.671875 -3.234375 L 5.671875 -6.484375 Z M 0.8125 -6.484375 L 0.8125 -11.34375 L 2.4375 -11.34375 L 2.4375 -6.484375 Z M 2.4375 -3.234375 L 2.4375 -6.484375 L 4.046875 -6.484375 L 4.046875 -3.234375 Z M 4.046875 0 L 4.046875 -3.234375 L 5.671875 -3.234375 L 5.671875 0 Z M 7.296875 -6.484375 L 7.296875 -11.34375 L 8.90625 -11.34375 L 8.90625 -6.484375 Z M 7.296875 -6.484375 "/></g></g></g><g fill="#ff66c4" fill-opacity="1"><g transform="translate(125.189872, 76.495435)"><g><path d="M 0.8125 0 L 0.8125 -11.34375 L 8.90625 -11.34375 L 8.90625 -9.71875 L 2.4375 -9.71875 L 2.4375 -6.484375 L 7.296875 -6.484375 L 7.296875 -4.859375 L 2.4375 -4.859375 L 2.4375 -1.625 L 8.890625 -1.625 L 8.890625 0 Z M 0.8125 0 "/></g></g></g><g fill="#ff66c4" fill-opacity="1"><g transform="translate(134.914693, 76.495435)"><g><path d="M 0.8125 0 L 0.8125 -11.34375 L 7.296875 -11.34375 L 7.296875 -9.71875 L 2.4375 -9.71875 L 2.4375 -6.484375 L 7.296875 -6.484375 L 7.296875 -4.859375 L 5.671875 -4.859375 L 5.671875 -3.234375 L 4.046875 -3.234375 L 4.046875 -4.859375 L 2.4375 -4.859375 L 2.4375 0 Z M 5.671875 -1.625 L 5.671875 -3.234375 L 7.296875 -3.234375 L 7.296875 -1.625 Z M 7.296875 0 L 7.296875 -1.625 L 8.90625 -1.625 L 8.90625 0 Z M 7.296875 -6.484375 L 7.296875 -9.71875 L 8.90625 -9.71875 L 8.90625 -6.484375 Z M 7.296875 -6.484375 "/></g></g></g></svg>